<?xml version="1.0" encoding="UTF-8" standalone="no"?>
<!-- Created with Inkscape (http://www.inkscape.org/) -->

<svg
   width="34.857731mm"
   height="34.662468mm"
   viewBox="0 0 34.857731 34.662468"
   version="1.1"
   id="svg1"
   xml:space="preserve"
   sodipodi:docname="iniciosesion.svg"
   xmlns:inkscape="http://www.inkscape.org/namespaces/inkscape"
   xmlns:sodipodi="http://sodipodi.sourceforge.net/DTD/sodipodi-0.dtd"
   xmlns="http://www.w3.org/2000/svg"
   xmlns:svg="http://www.w3.org/2000/svg"><sodipodi:namedview
     id="namedview1"
     pagecolor="#ffffff"
     bordercolor="#000000"
     borderopacity="0.25"
     inkscape:showpageshadow="2"
     inkscape:pageopacity="0.0"
     inkscape:pagecheckerboard="0"
     inkscape:deskcolor="#d1d1d1"
     inkscape:document-units="mm"
     inkscape:export-bgcolor="#ffffff00"
     showgrid="false" /><defs
     id="defs1" /><g
     inkscape:label="Capa 1"
     inkscape:groupmode="layer"
     id="layer1"
     transform="translate(-83.185251,-103.42935)"><g
       id="g1"
       transform="translate(-5.6817391,14.462609)"
       style="fill:#ffffff;fill-opacity:1;stroke:#ffffff;stroke-opacity:1"><path
         style="fill:#ffffff;fill-opacity:1;stroke:#ffffff;stroke-opacity:1"
         d="m 94.210791,118.82803 c -0.07688,-0.098 -0.0747,-0.10022 0.02334,-0.0233 0.05949,0.0466 0.108164,0.0953 0.108164,0.10816 0,0.0509 -0.05076,0.0181 -0.1315,-0.0848 z m 17.986179,-7.29336 c -0.0769,-0.098 -0.0747,-0.10022 0.0233,-0.0233 0.0595,0.0467 0.10816,0.0953 0.10816,0.10816 0,0.0509 -0.0507,0.0181 -0.1315,-0.0848 z m -2.09359,-5.60153 c 0,-0.0128 0.0487,-0.0615 0.10816,-0.10816 0.098,-0.0769 0.10022,-0.0747 0.0233,0.0233 -0.0808,0.10296 -0.1315,0.1357 -0.1315,0.0848 z m 1.68441,-3.96329 c 6.8e-4,-0.13598 0.0133,-0.18433 0.0281,-0.10744 0.0148,0.0769 0.0142,0.18813 -10e-4,0.24723 -0.0155,0.0591 -0.0276,-0.004 -0.0269,-0.13979 z M 94.836757,95.920215 c 0,-0.01283 0.04867,-0.06151 0.108164,-0.108164 0.09803,-0.07688 0.100217,-0.07469 0.02334,0.02334 -0.08074,0.102957 -0.1315,0.135699 -0.1315,0.08483 z"
         id="path8" /><path
         style="fill:#ffffff;fill-opacity:1;stroke:#ffffff;stroke-opacity:1"
         d="m 93.90175,118.51899 c -0.07688,-0.098 -0.0747,-0.10022 0.02334,-0.0233 0.05949,0.0467 0.108164,0.0953 0.108164,0.10817 0,0.0509 -0.05076,0.0181 -0.1315,-0.0848 z"
         id="path7" /><path
         style="fill:#ffffff;fill-opacity:1;stroke:#ffffff;stroke-opacity:1"
         d="m 107.24861,123.5914 c 0.0446,-0.0179 0.0979,-0.0157 0.11847,0.005 0.0205,0.0205 -0.016,0.0351 -0.0811,0.0325 -0.072,-0.003 -0.0867,-0.0176 -0.0374,-0.0373 z m 14.47959,-16.62024 c 0.003,-0.072 0.0176,-0.0866 0.0373,-0.0373 0.0178,0.0446 0.0157,0.0979 -0.005,0.11846 -0.0205,0.0205 -0.0352,-0.016 -0.0325,-0.0811 z M 107.06319,90.956675 c 0.0446,-0.01785 0.0979,-0.01566 0.11846,0.0049 0.0205,0.02054 -0.016,0.03515 -0.0811,0.03246 -0.072,-0.003 -0.0867,-0.01761 -0.0373,-0.03734 z"
         id="path6" /><path
         style="fill:#ffffff;fill-opacity:1;stroke:#ffffff;stroke-opacity:1"
         d="m 113.58967,110.08217 -0.11775,-0.13906 0.13907,0.11774 c 0.13069,0.11065 0.16721,0.16039 0.11775,0.16039 -0.0117,0 -0.0743,-0.0626 -0.13907,-0.13907 z m -8.84815,-1.9469 c 0.80737,-0.01 2.12852,-0.01 2.93589,0 0.80737,0.01 0.14679,0.0177 -1.46795,0.0177 -1.61474,0 -2.27531,-0.008 -1.46794,-0.0177 z"
         id="path5" /><path
         style="fill:#ffffff;fill-opacity:1;stroke:#ffffff;stroke-opacity:1"
         d="m 109.79922,101.9647 c 0.003,-0.072 0.0176,-0.0866 0.0373,-0.0373 0.0178,0.0446 0.0157,0.0979 -0.005,0.11846 -0.0205,0.0205 -0.0352,-0.016 -0.0325,-0.0811 z"
         id="path4" /><path
         style="fill:#ffffff;fill-opacity:1;stroke:#ffffff;stroke-opacity:1"
         d="m 106.00859,121.6105 c 0.14447,-0.013 0.38089,-0.013 0.52537,0 0.14447,0.013 0.0263,0.0237 -0.26269,0.0237 -0.28895,0 -0.40716,-0.0106 -0.26268,-0.0237 z m 0.12433,-14.15253 c 0.0769,-0.0148 0.18814,-0.0142 0.24724,10e-4 0.0591,0.0155 -0.004,0.0276 -0.13979,0.0269 -0.13598,-6.8e-4 -0.18433,-0.0133 -0.10745,-0.0281 z m 0.1229,-11.060887 c 0.0425,-0.01715 0.11203,-0.01715 0.15452,0 0.0425,0.01715 0.008,0.03118 -0.0773,0.03118 -0.085,0 -0.11975,-0.01403 -0.0773,-0.03118 z"
         id="path3" /><path
         style="fill:#ffffff;fill-opacity:1;stroke:#ffffff;stroke-opacity:1"
         d="m 106.87776,123.5914 c 0.0446,-0.0179 0.0979,-0.0157 0.11847,0.005 0.0205,0.0205 -0.016,0.0351 -0.0811,0.0325 -0.072,-0.003 -0.0866,-0.0176 -0.0374,-0.0373 z m -11.678038,-6.61761 c -0.07688,-0.098 -0.07469,-0.10022 0.02334,-0.0233 0.102957,0.0807 0.135698,0.1315 0.08483,0.1315 -0.01283,0 -0.06151,-0.0487 -0.108164,-0.10816 z M 105.51798,88.978813 c 0.0446,-0.01785 0.0979,-0.01566 0.11847,0.0049 0.0205,0.02054 -0.016,0.03515 -0.0811,0.03246 -0.072,-0.003 -0.0866,-0.01761 -0.0374,-0.03734 z m 1.4834,0 c 0.0446,-0.01785 0.0979,-0.01566 0.11847,0.0049 0.0205,0.02054 -0.016,0.03515 -0.0811,0.03246 -0.072,-0.003 -0.0866,-0.01761 -0.0373,-0.03734 z"
         id="path2" /><path
         style="fill:#ffffff;fill-opacity:1;stroke:#ffffff;stroke-opacity:1"
         d="m 105.12782,123.57321 c -3.54898,-0.25987 -6.976086,-1.58666 -9.73479,-3.7688 -0.756254,-0.5982 -2.075,-1.90759 -2.679658,-2.66065 -0.500267,-0.62305 -1.460587,-2.06277 -1.821979,-2.73154 -2.047096,-3.7882 -2.589665,-8.73125 -1.407606,-12.82392 1.813788,-6.279918 6.758441,-10.887141 13.112313,-12.217509 1.34312,-0.281222 2.23712,-0.369426 3.73698,-0.368694 2.88344,0.0014 5.24759,0.548246 7.81873,1.808508 2.00518,0.982852 3.86097,2.407469 5.30428,4.071883 2.0729,2.390455 3.34342,4.947242 3.93511,7.918952 0.27,1.35603 0.33352,2.00996 0.33352,3.43317 0,1.42322 -0.0635,2.07715 -0.33352,3.43317 -1.03748,5.21067 -4.47457,9.70035 -9.27317,12.11304 -1.66913,0.83922 -3.77209,1.47247 -5.62166,1.6928 -0.99359,0.11836 -2.50277,0.16298 -3.36855,0.0996 z m 3.17946,-2.07672 c 4.84392,-0.63415 9.12726,-3.54745 11.55654,-7.86013 1.30149,-2.31054 2.00019,-5.19061 1.9006,-7.8344 -0.14672,-3.89508 -1.61133,-7.372924 -4.23925,-10.066523 -1.39392,-1.428749 -2.65818,-2.354361 -4.36229,-3.19379 -2.06902,-1.019183 -4.04479,-1.508666 -6.39714,-1.584846 -1.29544,-0.04195 -2.217,0.02998 -3.39945,0.265348 -3.16405,0.629803 -5.882153,2.067984 -8.099873,4.285736 -2.327369,2.327402 -3.766493,5.176255 -4.294685,8.501635 -0.137935,0.86841 -0.187529,2.8225 -0.09362,3.68893 0.27689,2.55476 1.100956,4.86465 2.466717,6.91434 0.709319,1.06452 1.21203,1.68473 2.022331,2.49503 2.58929,2.58929 6.03116,4.16708 9.79156,4.48855 0.76358,0.0653 2.2463,0.0182 3.14856,-0.0999 z m -10.749731,-6.068 c -0.363542,-0.18265 -0.495698,-0.45102 -0.495698,-1.0066 0,-2.35738 1.607369,-4.70481 3.897639,-5.6922 1.20808,-0.52083 1.07804,-0.507 4.99926,-0.53183 3.70552,-0.0235 3.96318,-0.009 4.88441,0.26996 2.43981,0.73941 4.29313,2.85939 4.63245,5.29896 0.13907,0.99991 0.0471,1.37177 -0.40311,1.62988 -0.30399,0.17428 -0.65162,0.17764 -0.95134,0.009 -0.30189,-0.16967 -0.46942,-0.48419 -0.51723,-0.97101 -0.12313,-1.25391 -0.75339,-2.43284 -1.72512,-3.22693 -0.45178,-0.36919 -1.31898,-0.80264 -1.92995,-0.96465 -0.39526,-0.1048 -0.71312,-0.11472 -3.67759,-0.11472 -3.18617,0 -3.25366,0.003 -3.72698,0.13971 -1.14185,0.33094 -2.12031,1.02355 -2.756166,1.95097 -0.447576,0.65281 -0.719128,1.44694 -0.843707,2.46738 -0.08125,0.6655 -0.787231,1.04316 -1.386868,0.7419 z m 7.599021,-8.08078 c -1.5872,-0.31654 -3.04903,-1.43962 -3.78192,-2.90553 -1.32194,-2.6441 -0.31265,-5.948316 2.24482,-7.349099 0.90512,-0.495752 1.76844,-0.685817 2.90299,-0.639107 1.29416,0.05328 2.25249,0.412278 3.25991,1.221173 1.69627,1.362009 2.42966,3.946733 1.71529,6.045313 -0.64051,1.88163 -2.21735,3.25646 -4.16564,3.63199 -0.55339,0.10667 -1.62856,0.10432 -2.17545,-0.005 z m 1.91494,-1.98145 c 1.61397,-0.38041 2.74301,-1.7784 2.74301,-3.39641 0,-0.96408 -0.35433,-1.7994 -1.06454,-2.509613 -1.11388,-1.113882 -2.63965,-1.361115 -4.08572,-0.662041 -0.5462,0.264048 -1.26969,0.987539 -1.53374,1.533734 -0.68963,1.42654 -0.44873,2.9575 0.63752,4.05154 0.89843,0.90487 2.1077,1.26463 3.30347,0.98279 z"
         id="path1" /></g></g></svg>
